<svg t="1672986203107" class="icon" viewBox="0 0 1024 1024" version="1.1" xmlns="http://www.w3.org/2000/svg" p-id="5937" width="200" height="200"><path d="M839.111111 128H184.888889c-31.288889 0-56.888889 25.6-56.888889 56.888889v416.711111h768V184.888889c0-31.288889-25.6-56.888889-56.888889-56.888889zM652.8 364.088889c-2.844444 7.111111-7.111111 12.8-14.222222 17.066667l-27.022222 12.8 25.6 14.222222c7.111111 4.266667 11.377778 9.955556 14.222222 17.066666 1.422222 7.111111 1.422222 15.644444-2.844445 21.333334l-17.066666 29.866666c-8.533333 12.8-25.6 18.488889-39.822223 9.955556L558.933333 469.333333v35.555556c0 15.644444-12.8 28.444444-29.866666 28.444444h-35.555556c-15.644444 0-29.866667-12.8-29.866667-28.444444v-39.822222L428.088889 483.555556c-14.222222 7.111111-31.288889 1.422222-38.4-12.8L372.622222 440.888889c-4.266667-7.111111-4.266667-14.222222-1.422222-21.333333 2.844444-7.111111 7.111111-12.8 14.222222-17.066667l27.022222-12.8-25.6-14.222222c-7.111111-4.266667-11.377778-9.955556-14.222222-17.066667-1.422222-7.111111-1.422222-15.644444 2.844445-21.333333l17.066666-29.866667c8.533333-12.8 25.6-18.488889 39.822223-9.955556l31.288888 17.066667v-35.555555c0-15.644444 12.8-28.444444 29.866667-28.444445h35.555556c15.644444 0 29.866667 12.8 29.866666 28.444445v39.822222l36.977778-18.488889c14.222222-7.111111 31.288889-1.422222 38.4 12.8l15.644445 29.866667c4.266667 5.688889 5.688889 12.8 2.844444 21.333333z" fill="#bfbfbf" p-id="5938"></path><path d="M550.4 352.711111c-4.266667 2.844444-9.955556 1.422222-14.222222 0-4.266667-2.844444-7.111111-7.111111-7.111111-11.377778v-62.577777h-35.555556l-1.422222 59.733333c0 5.688889-2.844444 9.955556-7.111111 12.8-4.266667 2.844444-9.955556 2.844444-14.222222 0l-52.622223-29.866667-18.488889 29.866667 49.777778 28.444444c4.266667 2.844444 7.111111 7.111111 7.111111 12.8s-2.844444 9.955556-8.533333 12.8L398.222222 428.088889l15.644445 29.866667 58.311111-28.444445c1.422222-1.422222 4.266667-1.422222 5.688889-1.422222 2.844444 0 5.688889 1.422222 7.111111 2.844444 4.266667 2.844444 7.111111 7.111111 7.111111 11.377778v62.577778h35.555555l1.422223-59.733333c0-5.688889 2.844444-9.955556 7.111111-12.8 4.266667-2.844444 9.955556-2.844444 14.222222 0l52.622222 29.866666 18.488889-29.866666-49.777778-28.444445c-4.266667-2.844444-7.111111-7.111111-7.111111-12.8s2.844444-9.955556 8.533334-12.8l51.2-25.6-15.644445-29.866667-58.311111 29.866667zM128 711.111111c0 31.288889 25.6 56.888889 56.888889 56.888889h197.688889l-72.533334 73.955556c-19.911111 19.911111-5.688889 54.044444 22.755556 54.044444h359.822222c28.444444 0 42.666667-34.133333 22.755556-54.044444L640 768h199.111111c31.288889 0 56.888889-25.6 56.888889-56.888889v-81.066667H128V711.111111z m384-46.933333c17.066667 0 29.866667 12.8 29.866667 29.866666 0 17.066667-12.8 29.866667-29.866667 29.866667-17.066667 0-29.866667-12.8-29.866667-29.866667 0-17.066667 12.8-29.866667 29.866667-29.866666z" fill="#bfbfbf" p-id="5939"></path></svg>